<?xml version="1.0" encoding="UTF-8" standalone="no"?>
<!-- Created with Inkscape (http://www.inkscape.org/) -->

<svg
   xmlns:svg="http://www.w3.org/2000/svg"
   xmlns="http://www.w3.org/2000/svg"
   version="1.1"
   width="744.09448"
   height="1052.3622"
   id="svg2">
  <defs
     id="defs4" />
  <g
     transform="translate(-22.504838,-104.8113)"
     id="g6444">
    <g
       id="basso">
      <path
         d="m 455.46875,583.125 c -1.08075,0.13787 -2.07587,1.23661 -3.28125,2.84375 -2.1429,2.85715 -3.58475,2.85715 -7.15625,5 -3.5714,2.14286 -3.5536,3.90625 -7.125,11.40625 -3.5714,7.5 -1.4464,2.87054 -5.375,7.15625 -3.9285,4.28572 -6.0536,5.71429 -9.625,12.5 -3.5714,6.78572 -2.52235,3.58036 -3.59375,8.9375 -1.0715,5.35715 -2.1429,5.34375 -2.5,10.34375 -0.3572,5 4.64735,11.07142 8.21875,17.5 3.5715,6.42857 13.21875,17.86607 13.21875,21.4375 0,3.57143 -2.3304,4.80804 -5.1875,1.59375 -2.8572,-3.21429 -5.8839,-1.96875 -7.3125,0.53125 -1.4285,2.5 -9.2768,2.87054 -13.5625,2.15625 -4.2857,-0.71428 -3.0357,0.7009 -7.5,-7.15625 -4.6879,-8.25073 -2.92685,-17.15586 -5.71875,-9.625 -1.0679,2.88067 -0.7322,4.26339 -2.875,6.40625 -2.1429,2.14286 -4.7947,8.75 -6.9375,11.25 -2.1429,2.5 -4.11165,-0.50893 -6.96875,-1.9375 -2.8572,-1.42857 -1.4286,-3.24107 0,-6.8125 1.4285,-3.57143 -3.22765,-5.6875 -4.65625,-8.1875 -1.4286,-2.5 -5.7143,-0.35714 -10,0 -4.2857,0.35715 -6.4375,3.19643 -8.9375,4.625 -2.5,1.42857 -7.84375,-1.4375 -7.84375,-1.4375 0,0 -8.9197,-4.63393 -11.0625,-6.0625 -2.1429,-1.42857 -1.09375,-3.92411 -1.09375,-6.78125 0,-2.85715 -4.62945,-3.20982 -7.84375,-4.28125 -3.2143,-1.07143 -2.8571,-2.49554 -2.5,-4.28125 0.3571,-1.78572 6.63985,-1.74905 6.96875,-5.53125 0.3571,-4.10715 -2.41785,-6.02208 -8.40625,-10.90625 -5.7955,-4.72689 -6.8973,-4.52881 -7.5,-7.84375 -0.7143,-3.92857 -0.1696,-5.89285 2.6875,-8.75 2.8571,-2.85714 1.08485,-6.08035 -0.34375,-8.9375 -1.4285,-2.85714 -3.2895,-5.76846 -5.1875,-7.3125 -1.5794,-1.28485 -1.4464,-0.20536 -5.375,-0.5625 -3.9285,-0.35714 -4.59338,0.63045 -7.125,1.625 -5,1.96428 -3.21429,0.17411 -5,-1.96875 -1.78572,-2.14285 -0.48851,-8.34847 -2.15625,-12.3125 -1.31751,-3.13156 -6.05357,-1.08035 -9.625,-1.4375 -3.57143,-0.35714 -4.29911,4.28571 -7.15625,5 -2.85714,0.71429 -6.38545,3.44218 -7.84375,8.9375 -1.37557,5.18354 -3.39286,3.56696 -6.25,4.28125 -2.85714,0.71429 -3.75,1.41071 -3.75,4.625 0,3.21428 -7.16071,1.6116 -10.375,1.96875 -3.21429,0.35714 -6.77679,0.1875 -8.5625,-2.3125 -1.78572,-2.5 -8.92857,-2.84375 -10,-2.84375 -1.07143,0 -7.33482,-0.54464 -13.40625,2.3125 -5.6459,2.65689 -10.91422,0.59288 -11.65625,0.28125 l -0.0312,0.6875 4.625,0.59375 4.625,0.5625 -4.5625,0.25 c -4.42872,0.22705 -4.56927,0.46752 -5.5625,8.625 -0.56196,4.6153 -1.11212,24.49106 -1.21875,44.15625 -0.23653,43.60436 0.26153,45.64023 13.96875,56.71875 14.55339,11.76242 17.16883,15.15864 17.9375,23.25 0.43626,4.59229 -0.24777,10.22618 -1.9375,15.75 -1.44753,4.73207 -2.6924,10.46806 -2.75,12.71875 -0.0926,3.6215 0.32767,4.00575 3.5625,3.34375 2.83585,-0.58034 2.58745,-0.26619 -1.09375,1.40625 -2.60967,1.18562 -5.10902,3.11723 -5.5625,4.3125 -1.16324,3.0661 3.13859,9.15725 6.875,9.71875 3.40265,0.51134 6.83987,4.79746 5.1875,6.46875 -0.56224,0.56869 -2.2243,-0.0669 -3.6875,-1.40625 -2.49009,-2.27932 -2.81471,-2.26592 -5.09375,0.28125 -2.17325,2.42891 -2.18295,2.91367 -0.21875,4.5625 2.48756,2.08814 2.90934,6.71268 0.75,8.0625 -1.77352,1.10865 2.91809,10.718 7.84375,16.09375 2.48672,2.71395 3.81209,6.30589 4.5,12.125 1.11067,9.39521 5.62802,18.76934 9.65625,20.0625 1.49425,0.47969 3.40868,2.43798 4.28125,4.375 1.11068,2.46562 2.7855,3.53125 5.53125,3.53125 3.8967,0 3.88799,0.0426 2.5,6.625 -0.98003,4.64769 -0.90981,7.21832 0.21875,8.59375 1.22275,1.49019 1.04646,2.17774 -0.75,2.875 -3.4122,1.32438 0.0626,5.20233 3.78125,4.21875 2.19691,-0.58108 2.84375,-0.0226 2.84375,2.53125 0,1.81111 -1.1425,4.22354 -2.53125,5.34375 -2.39447,1.93143 -2.37268,2.13152 0.21875,3.8125 1.50299,0.97494 4.39793,3.16332 6.4375,4.875 3.33248,2.79675 3.5117,3.50547 1.9375,7 -2.55,5.66075 -2.25255,6.4676 2.9375,7.84375 3.71169,0.98415 4.60731,1.89196 4.25,4.40625 -0.37598,2.64574 0.24755,3.1875 3.78125,3.1875 2.33342,0 5.08391,0.98804 6.09375,2.21875 2.67199,3.25643 4.79022,1.89482 6.46875,-4.15625 1.48834,-5.36542 7.18349,-12.89199 19.8125,-26.1875 3.76946,-3.96838 6.875,-8.46506 6.875,-9.96875 0,-2.51293 -1.11494,-2.31053 -13.65625,2.28125 l -13.65625,4.96875 -1.71875,-4.84375 c -0.95209,-2.6631 -3.58709,-5.93294 -5.84375,-7.28125 -2.25667,-1.34833 -4.09375,-3.00157 -4.09375,-3.6875 0,-1.56889 5.95096,-6.59011 15.625,-13.1875 4.11942,-2.80931 7.86699,-6.33752 8.34375,-7.84375 0.74217,-2.34478 1.87151,-2.62169 7.84375,-1.90625 4.82392,0.57786 10.01925,-0.0726 16.8125,-2.09375 7.56097,-2.24961 14.77854,-2.98638 31.4375,-3.25 19.15345,-0.3031 22.0919,-0.034 25.40625,2.375 2.59962,1.88951 8.89156,3.31516 20.5625,4.6875 23.2051,2.72861 30.947,5.28627 40.0625,13.15625 4.63897,4.0051 9.18031,6.6327 11.65625,6.78125 2.22975,0.13377 5.17657,0.3082 6.5625,0.375 2.03951,0.0984 2.43173,-0.91531 2.0625,-5.25 l -0.4375,-5.34375 10.21875,-3.34375 c 6.37669,-2.07727 10.00404,-3.98109 9.59375,-5.0625 -0.36239,-0.95523 -1.44988,-4.36508 -2.40625,-7.59375 -1.0481,-3.53831 -2.81453,-6.16447 -4.4375,-6.59375 -1.48093,-0.3917 -2.6875,-1.76486 -2.6875,-3.0625 0,-2.16458 -0.28443,-2.16194 -3.59375,0.0312 -3.53324,2.34158 -3.625,2.3013 -3.625,-1.46875 0,-2.45667 2.09652,-6.11607 5.75,-10.125 l 5.71875,-6.28125 -2.875,-5.375 c -2.10158,-3.96599 -2.59891,-6.87889 -1.9375,-11.0625 0.77362,-4.89335 0.45632,-5.92178 -2.34375,-7.4375 -3.09504,-1.67538 -3.22289,-2.33778 -2.34375,-13.90625 0.89727,-11.80683 0.84468,-12.17079 -2.3125,-12.625 -2.21358,-0.31845 -3.17004,-1.36908 -3,-3.3125 0.13718,-1.56796 -1.04502,-4.6932 -2.625,-6.9375 -1.57997,-2.24428 -2.2299,-4.0625 -1.4375,-4.0625 0.79242,0 1.65267,-1.44566 1.90625,-3.21875 0.29069,-2.03251 1.79744,-3.55668 4.0625,-4.09375 2.26776,-0.53771 2.94456,-1.23765 1.875,-1.90625 -0.93191,-0.58256 -2.74148,-4.73128 -4.03125,-9.21875 -1.58377,-5.51036 -3.2298,-8.39025 -5.0625,-8.875 -1.58264,-0.41861 -3.58912,-3.24992 -4.8125,-6.78125 -1.15368,-3.33019 -2.50787,-7.11296 -3.03125,-8.40625 -0.69816,-1.72519 0.99399,-3.59024 6.34375,-7.0625 7.44425,-4.83168 8.66461,-6.59601 5.46875,-7.78125 -1.44286,-0.5351 -1.44286,-1.04681 0,-2.59375 0.99197,-1.06353 1.8125,-4.43924 1.8125,-7.46875 0,-4.64416 0.69416,-5.84111 4.34375,-7.75 4.96718,-2.59805 5.1514,-3.5847 2.03125,-9.6875 -1.24886,-2.44271 -1.91549,-4.7985 -1.5,-5.21875 0.41548,-0.42025 4.84411,-2.89036 9.84375,-5.46875 6.3711,-3.28569 9.23936,-5.62295 9.5625,-7.84375 0.25358,-1.74272 1.34919,-3.15625 2.4375,-3.15625 1.08834,0 2.33653,-0.61594 2.78125,-1.34375 0.44472,-0.72781 -0.50551,-0.98259 -2.09375,-0.5625 -1.61516,0.4272 -2.875,0.0677 -2.875,-0.84375 0,-0.89628 1.34673,-1.625 3,-1.625 1.76351,0 2.75894,-0.77354 2.40625,-1.84375 -0.33066,-1.00333 -2.14923,-1.8125 -4.03125,-1.8125 -2.4205,0 -3.69649,1.07545 -4.40625,3.65625 -0.92122,3.34978 -1.02423,3.37322 -1.15625,0.4375 -0.0791,-1.75862 -0.77234,-3.58808 -1.53125,-4.0625 -0.75892,-0.4744 -0.98963,-1.85432 -0.53125,-3.0625 0.45837,-1.20818 -0.21001,-3.34317 -1.46875,-4.75 -0.36907,-0.41249 -0.63667,-0.77932 -0.875,-1.15625 -1.60512,-0.93879 -2.99377,-1.77751 -4.09375,-2.4375 -8.9286,-5.35714 -2.71295,-4.91269 -6.96875,-19.8125 -1.4948,-5.23348 -7.5183,-7.00879 -11.25,-12.6875 -4.1071,-6.25001 -4.45985,-10.36161 -8.03125,-10.71875 -3.5714,-0.35714 -1.0708,-1.10677 -5.1875,-5.875 -1.05127,-1.21767 -1.94066,-1.70098 -2.78125,-1.59375 z"
         transform="translate(80.812203,-64.649763)"
         id="path6386"
         style="fill:#dbeff6" />
      <path
         d="m 455.4375,583.5625 c -0.33317,0.1064 -0.66676,0.32608 -1,0.59375 l 1,-0.59375 z m 1.75,1.125 -6.75,3.84375 c -5.28419,3.00442 -7.7946,5.84941 -11.65625,13.09375 -0.13006,0.24399 -0.2197,0.42485 -0.34375,0.65625 -0.074,0.157 -0.14147,0.27521 -0.21875,0.4375 -2.29729,4.8243 -2.32591,4.67853 -3.03125,5.0625 -1.03652,1.48456 -1.91997,2.35758 -3,2.78125 -1.425,1.5184 -2.64134,2.77194 -3.78125,4.0625 -0.88049,2.14214 -3.18269,5.62462 -5.03125,7.46875 -0.0537,0.10078 -0.10192,0.17802 -0.15625,0.28125 -3.57143,6.78572 -2.49107,3.54911 -3.5625,8.90625 -0.89613,4.48067 -1.80304,5.26709 -2.28125,8.3125 -0.009,0.10103 -0.0232,0.21244 -0.0312,0.3125 -0.13819,1.71863 -0.0862,3.30526 0.1875,4.90625 1.22321,4.31048 4.96403,9.2165 7.8125,14.34375 3.3022,5.94395 11.80081,16.13879 13.0625,20.46875 3.34337,3.53999 5.87179,4.19199 10.15625,4.21875 l 3.21875,0 -2.84375,6.6875 c -1.55894,3.67851 -2.84375,8.27863 -2.84375,10.21875 0,1.9401 -0.64393,3.53125 -1.4375,3.53125 -2.35198,0 -1.63847,-5.52764 1.5,-11.75 3.2949,-6.53253 3.06052,-6.77678 -6.9375,-7.625 -3.39194,-0.28778 -6.94198,-1.30629 -7.875,-2.25 -1.42562,-1.44194 -2.61427,-1.92493 -4.0625,-1.40625 -0.006,0.005 -0.0254,-0.005 -0.0312,0 -0.46504,0.39974 -0.8654,0.90507 -1.1875,1.46875 -0.55301,0.96777 -2.06916,1.6123 -3.96875,2 -0.25526,0.0805 -0.51045,0.12566 -0.75,0.125 -0.0202,0.003 -0.0423,-0.003 -0.0625,0 -2.88538,0.4616 -6.37896,0.43163 -8.78125,0.0312 -4.28571,-0.71428 -3.03572,0.7009 -7.5,-7.15625 -4.68791,-8.25073 -2.92686,-17.18711 -5.71875,-9.65625 -1.06794,2.88067 -0.70089,4.29464 -2.84375,6.4375 -2.14286,2.14286 -4.8259,8.75 -6.96875,11.25 -0.21375,0.24937 -0.44499,0.4162 -0.65625,0.5625 0.0934,-0.028 0.1833,-0.0245 0.28125,-0.0625 1.27892,-0.49639 1.97834,-0.29422 1.53125,0.4375 -0.4471,0.73171 -2.71446,1.73532 -5.03125,2.25 -2.31678,0.51468 -4.99193,1.87884 -5.9375,3.03125 -0.94558,1.1524 -2.90724,2.09375 -4.34375,2.09375 -2.5654,0 -3.03372,0.94916 -4.875,9.28125 -0.80894,3.6605 -1.4039,4.01802 -4.84375,3.15625 l -3.90625,-0.96875 4.65625,4.90625 c 2.56362,2.6892 5.06663,6.83281 5.53125,9.21875 0.71938,3.69424 -0.0353,5.18103 -5.03125,10.09375 -3.22663,3.17288 -5.875,6.54823 -5.875,7.5 0,2.45693 9.48717,3.96404 13,2.0625 2.59041,-1.40222 3.01401,-1.06763 3.78125,2.8125 l 0.875,4.375 12.46875,0.40625 12.4375,0.4375 -0.46875,14.59375 c -0.57385,17.48658 0.52419,21.15675 7.09375,23.4375 4.87143,1.69122 4.94752,1.62947 6.625,-3.59375 2.68973,-8.37512 2.24707,-10.84427 -2.4375,-14 -2.38305,-1.60532 -4.71157,-4.15514 -5.1875,-5.65625 -1.33825,-4.22108 3.98747,-10.38899 9.125,-10.5625 5.77487,-0.19503 7.55575,-1.48437 9.9375,-7.25 1.42815,-3.45719 1.58463,-5.92644 0.59375,-8.5625 -1.79844,-4.78441 -0.53033,-7.92181 3.59375,-8.96875 5.14973,-1.3073 10.41838,-7.99843 11.96875,-15.1875 1.04584,-4.84961 1.44837,-5.52615 1.5625,-2.5625 0.17321,4.49912 3.0625,5.61934 3.0625,1.1875 0,-1.55795 0.64392,-3.25392 1.4375,-3.75 0.79357,-0.49607 1.4375,0.48369 1.4375,2.15625 0,3.60759 5.34446,6.09861 10.3125,4.8125 1.87071,-0.48428 5.85062,-2.51071 8.84375,-4.5 5.0185,-3.33538 5.26967,-3.82912 3.1875,-6.15625 -2.02947,-2.26828 -2.03259,-2.59821 -0.0312,-3.375 1.48456,-0.57621 2.21875,-2.76716 2.21875,-6.59375 0,-5.02104 0.63923,-6.12293 5.09375,-8.78125 l 5.0936,-3.0312 -2.8125,-5.59375 -2.8125,-5.59375 3.125,-1.96875 c 1.72392,-1.08987 6.19928,-3.55291 9.96875,-5.46875 4.65095,-2.36385 6.875,-4.38389 6.875,-6.3125 0,-1.56309 -0.64393,-2.84375 -1.4375,-2.84375 -0.79357,0 -1.46875,-1.60322 -1.46875,-3.5625 0,-1.95928 -0.68359,-4.00136 -1.53125,-4.53125 -0.8476,-0.5299 -1.18621,-1.91271 -0.75,-3.0625 0.50496,-1.33097 -1.53947,-3.75249 -5.65625,-6.6875 -5.72883,-4.0843 -6.45459,-5.21278 -6.25,-9.8125 l 0.25,-5.1875 0.5625,4.71875 c 0.0214,0.17405 0.0622,0.35544 0.0937,0.53125 -0.003,-1.8193 -0.10522,-4.25445 -0.84375,-7.75 -0.25186,-0.52421 -0.51814,-1.16055 -0.90625,-2.0625 -1.0779,-2.505 -4.2068,-6.26835 -6.9375,-8.375 -2.96297,-2.28586 -5.73699,-6.19979 -6.875,-9.6875 -0.26098,-0.79985 -0.52702,-1.44992 -0.78125,-2.0625 -0.0139,-0.027 -0.0175,-0.067 -0.0312,-0.0937 -0.51165,-0.99379 -0.96179,-1.8025 -1.4375,-2.5 -0.76086,-0.83147 -1.63907,-1.1875 -2.78125,-1.1875 -1.85482,0 -3.90125,-1.45813 -5.03125,-3.59375 l -1.9375,-3.625 z m 1.15625,0.0937 1.4375,1.84375 c 0.0438,0.0556 0.11107,0.10125 0.15625,0.15625 -0.34906,-0.51495 -0.80709,-1.0922 -1.375,-1.75 -0.0778,-0.0901 -0.14277,-0.16814 -0.21875,-0.25 z m -167.90625,2.75 c -3.13273,0 -5.24239,0.64145 -7.96875,2.65625 -0.47417,0.52875 -0.98315,1.0073 -1.59375,1.28125 -0.0119,0.0101 -0.0193,0.0211 -0.0312,0.0312 -0.58389,0.49891 -1.2096,1.03492 -1.875,1.65625 -3.30632,3.08734 -6,6.95445 -6,8.59375 0,2.23408 -1.22971,3.20862 -4.90625,3.90625 -3.98708,0.75655 -4.76156,1.47131 -4.15625,3.8125 0.68944,2.66664 -0.0281,2.875 -9.46875,2.875 -7.02144,0 -10.54921,-0.61375 -11.34375,-1.96875 -1.8236,-3.10992 -11.34584,-3.93596 -18.875,-1.625 -3.74369,1.14906 -8.51926,2.116 -10.625,2.125 -3.54335,0.0146 -3.91224,0.59658 -4.71875,7.6875 -4.19343,36.8645 -4.19738,71.42271 0,85.71875 1.79489,6.11325 3.68523,8.48766 12.8125,16.03125 5.88219,4.86155 11.99217,10.4808 13.5625,12.5 4.36515,5.61295 5.1009,13.70255 2.25,24.28125 -1.36725,5.07341 -2.64932,11.26336 -2.84375,13.78125 l -0.34375,4.59375 8.15625,-3.34375 8.125,-3.375 0,-9.25 c 0,-8.71961 0.21631,-9.27251 3.5625,-9.75 4.32313,-0.6169 7.47595,-4.38926 6.65625,-7.96875 -0.33291,-1.45377 0.30875,-2.9994 1.4375,-3.4375 1.12876,-0.43811 2.0625,-1.73967 2.0625,-2.875 0,-1.13533 1.60982,-2.80446 3.59375,-3.71875 1.98393,-0.9143 3.619,-2.69292 3.625,-3.96875 0.012,-2.47229 6.73509,-6.43939 7.84375,-4.625 0.36238,0.59306 2.60939,0.78775 4.96875,0.4375 2.99364,-0.4444 4.05414,-1.25814 3.5,-2.71875 -0.43674,-1.15115 0.24293,-3.27885 1.53125,-4.71875 1.28834,-1.4399 1.84691,-3.13449 1.25,-3.78125 -0.59691,-0.6467 -0.13367,-0.88957 1,-0.53125 1.13365,0.35834 2.74347,1.91119 3.59375,3.46875 0.85026,1.55754 2.37747,3.35495 3.375,4 0.99755,0.64503 3.12106,3.76989 4.71875,6.9375 1.59769,3.16759 4.00238,5.86267 5.375,6 1.37263,0.1373 3.49619,0.3442 4.6875,0.4375 3.57939,0.28015 5.75,2.26732 5.75,5.21875 0,1.87762 0.69808,2.50346 2.15625,1.9375 1.58272,-0.61432 2.1875,0.18646 2.1875,2.96875 0,4.57182 0.61432,4.66264 5.375,0.875 2.01772,-1.60532 5.50755,-2.90625 7.78125,-2.90625 3.50296,0 4.15625,0.58901 4.15625,3.84375 0,2.11257 -1.22168,5.87228 -2.71875,8.375 -1.8773,3.13839 -2.92654,8.30842 -3.375,16.65625 l -0.65625,12.09375 4.4375,-0.96875 c 2.44989,-0.53079 4.96732,-1.23944 5.5625,-1.59375 1.93123,-1.14967 1.13862,-5.02674 -1.78125,-8.78125 -2.22009,-2.85475 -2.51488,-4.31794 -1.34375,-6.53125 0.82801,-1.56489 2.39023,-3.17516 3.46875,-3.59375 1.35923,-0.52757 1.71263,-2.31345 1.15625,-5.78125 -0.73103,-4.55637 -0.42135,-5.12657 3.5625,-6.53125 2.40583,-0.84828 4.75358,-2.64584 5.21875,-4 1.5316,-4.45869 6.86062,-12.59986 11.3125,-17.3125 4.05017,-4.28741 4.25267,-4.98689 2.71875,-9.4375 -0.91187,-2.64577 -3.34602,-6.57671 -5.375,-8.71875 -3.74332,-3.95194 -2.48859,-7.63442 1.46875,-4.3125 1.50572,1.26394 2.29715,0.24153 3.6875,-4.78125 1.5637,-5.64893 2.55885,-6.72794 8.90625,-9.53125 l 7.15625,-3.15625 -1.6875,-2.9375 c -0.009,-0.004 -0.0224,0.004 -0.0312,0 -1.45865,-0.73737 -1.75536,-1.59377 -1.53125,-2.71875 -1.18772,-2.35315 -1.14576,-3.57239 0,-4.96875 1.39078,-1.695 1.04681,-2.55309 -1.84375,-4.46875 -4.75338,-3.15021 -9.83177,-2.97411 -16.625,0.53125 l -5.5625,2.875 -9.5,-4.375 c -8.62915,-3.95746 -9.53125,-4.75634 -9.53125,-8.71875 0,-3.39068 -0.63268,-4.34375 -2.875,-4.34375 -1.58714,0 -2.875,-0.57221 -2.875,-1.28125 0,-0.70904 -1.31911,-1.64269 -2.90625,-2.0625 -4.22851,-1.11844 -3.49445,-3.87501 1.46875,-5.625 5.86057,-2.06641 5.44126,-4.68551 -1.8125,-11.5 -2.32887,-2.18783 -3.92132,-4.08214 -4.375,-5.0625 -1.32552,-1.00968 -2.31619,-1.74076 -3,-2.34375 -0.31075,2.73082 -1.12235,4.79431 -2.03125,3.875 -1.86446,-1.88581 -1.40837,-13.79753 0.5625,-14.5625 1.15062,-0.44658 2,-2.88826 2,-5.84375 0,-4.04499 -1.00096,-5.81664 -4.84375,-8.78125 -5.49597,-4.23999 -7.71999,-4.53524 -11.6875,-1.5 -5.70874,4.36733 -6.61583,3.32296 -8.71875,-9.90625 -0.82755,-5.20606 -1.14408,-5.46875 -6.34375,-5.46875 z m 85.34375,80.09375 c 0.26869,0.0427 0.52302,0.10038 0.78125,0.15625 -0.24696,-0.0786 -0.49399,-0.13413 -0.78125,-0.15625 z"
         transform="translate(80.812203,-64.649763)"
         id="path4607"
         style="fill:#72c1de" />
    </g>
  </g>
  <path
     d="m 463.01261,400.63978 c -4.64894,-5.85127 -4.73658,-6.19765 -2.52573,-9.98319 2.15535,-3.69051 2.09133,-4.26066 -1.08637,-9.67451 -4.67379,-7.96276 -6.3046,-27.80274 -3.04069,-36.99243 1.25606,-3.53651 2.1012,-6.61467 1.87808,-6.84036 -0.22314,-0.22568 -3.57542,-1.78459 -7.44952,-3.46424 -6.74181,-2.92299 -7.34595,-2.95242 -14.09054,-0.68657 -5.4623,1.83506 -7.50737,1.98065 -9.09554,0.64749 -2.79835,-2.34901 -5.48659,-0.35367 -4.5265,3.35977 0.54095,2.09232 -1.52194,0.70534 -6.61948,-4.45059 l -7.40535,-7.49017 1.92562,-8.11886 c 1.0591,-4.46538 2.17245,-8.11887 2.47409,-8.11887 0.30166,0 3.07329,1.30282 6.15917,2.89515 l 5.6107,2.89516 2.98896,-4.89165 c 1.64394,-2.69039 2.98897,-5.56317 2.98897,-6.38395 0,-0.82077 2.11018,-1.84029 4.68928,-2.26563 10.11495,-1.66811 14.79865,-3.29507 12.90092,-4.48136 -1.02987,-0.64379 -3.4254,-4.72213 -5.32338,-9.06296 -2.61174,-5.97326 -4.19521,-7.89244 -6.51183,-7.89244 -2.47245,0 -2.97318,-0.75305 -2.6044,-3.9169 0.33404,-2.86585 1.53099,-4.20522 4.46065,-4.99142 4.71591,-1.26557 9.56811,-6.66416 9.70092,-10.79336 0.0517,-1.60532 1.02022,-4.15625 2.15239,-5.66874 1.72528,-2.30485 3.20763,-2.59579 9.1579,-1.79741 9.45777,1.26898 27.9988,7.73154 29.38867,10.24355 0.61004,1.10256 2.64687,2.39502 4.52628,2.87214 4.6336,1.17628 13.39258,9.50294 15.28102,14.52681 0.8463,2.25142 1.53872,6.73743 1.53872,9.9689 0,4.52454 1.36864,7.84889 5.9527,14.45876 5.82282,8.39608 5.91726,8.72568 4.32857,15.1072 -2.24724,9.0268 -2.19554,9.23568 2.95177,11.92796 3.92298,2.05189 4.2318,2.58817 2.16428,3.75845 -1.7563,0.99415 -2.4116,3.36471 -2.4116,8.72412 0,5.22543 -0.86348,8.46936 -2.97817,11.18857 -2.46238,3.16625 -2.81378,5.03864 -2.02891,10.81072 0.76394,5.61805 0.53311,6.98121 -1.1821,6.98121 -2.19714,0 -3.85657,4.16161 -3.89113,9.75838 -0.0156,2.52841 -0.99356,3.28612 -4.70898,3.64846 -3.90737,0.38106 -4.76541,1.12651 -5.14583,4.47061 -0.2511,2.20732 -0.78477,4.01331 -1.18593,4.01331 -0.40116,0 -3.58371,-1.69191 -7.07232,-3.7598 -5.80548,-3.44119 -6.77478,-3.60184 -11.43908,-1.8959 -4.86902,1.78083 -5.09612,2.17602 -5.09612,8.86764 0,6.43457 -0.28356,7.00374 -3.48914,7.00374 -1.91903,0 -4.39045,0.34983 -5.49204,0.7774 -1.19313,0.46308 -3.95007,-1.67334 -6.81898,-5.28419 z m -159.30735,38.80231 c -0.47835,-1.26085 -2.63415,-2.18907 -5.08412,-2.18907 -2.33949,0 -4.49304,-0.7265 -4.78567,-1.61445 -0.36128,-1.09624 -3.80748,-0.62781 -10.73652,1.45939 -15.70951,4.73208 -14.94334,5.29993 -14.94334,-11.07531 0,-12.85878 0.31155,-14.48916 3.41618,-17.87745 2.70914,-2.95668 3.94521,-7.13446 5.97232,-20.18585 1.40589,-9.05163 3.11504,-16.80687 3.79812,-17.23387 0.68308,-0.427 1.24196,-2.25606 1.24196,-4.06459 0,-1.80851 1.38048,-6.17823 3.06776,-9.71046 4.48575,-9.39079 6.60749,-23.54678 4.43856,-29.61356 -3.71188,-10.38258 -1.50832,-20.68364 5.83259,-27.26592 3.68425,-3.30351 4.15092,-4.82131 4.93582,-16.05323 0.5463,-7.81739 1.66487,-13.33361 3.0248,-14.91649 2.02634,-2.35857 2.30912,-2.31408 4.6375,0.72969 1.36376,1.78279 3.43364,5.21159 4.59973,7.61958 1.16608,2.40798 2.88842,4.21397 3.82741,4.0133 0.94668,-0.20231 1.70726,1.22216 1.70726,3.19748 0,1.95928 0.64928,3.96821 1.44285,4.46429 0.79357,0.49607 1.44286,2.06567 1.44286,3.48798 0,3.00778 4.64594,5.71743 10.82143,6.31139 3.6537,0.3514 4.53087,1.24434 5.62613,5.72732 1.07062,4.3821 2.23785,5.62489 6.67364,7.10561 4.22257,1.40953 5.22103,2.39417 4.65354,4.58914 -0.39739,1.53703 -2.21288,3.5933 -4.03443,4.56948 l -3.3119,1.7749 2.86088,3.55693 c 2.79097,3.46999 3.07911,3.51348 11.78937,1.77932 7.1348,-1.4205 9.65315,-2.69197 12.53563,-6.32904 1.98393,-2.50329 5.62163,-6.8654 8.08379,-9.6936 l 4.47664,-5.14218 4.90193,3.42755 c 2.69606,1.88516 8.49527,6.76004 12.88714,10.83306 27.83881,25.81775 36.02193,33.83862 36.02193,35.3076 0,0.91184 -1.01231,2.50765 -2.24957,3.54625 -1.8825,1.58022 -4.36651,1.01414 -15.22283,-3.46916 -12.12655,-5.00786 -13.23869,-5.21869 -17.04047,-3.23019 -3.2762,1.7136 -3.92763,2.86587 -3.34952,5.92468 0.5628,2.97781 0.055,3.97261 -2.35283,4.60949 -3.6541,0.96652 -3.71079,1.48406 -0.90621,8.27325 1.19036,2.88155 2.16428,7.27285 2.16428,9.75843 0,3.2298 1.23505,5.57036 4.32858,8.20321 4.63541,3.94512 5.42031,6.1115 2.525,6.96912 -0.99197,0.29382 -5.71542,1.9398 -10.49657,3.65772 l -8.69302,3.12347 -4.99932,13.07941 c -4.99584,13.07027 -5.00289,13.07939 -10.13628,13.07939 -2.82533,0 -5.84282,0.71394 -6.70553,1.58654 -2.15569,2.18038 -3.36769,-0.1023 -4.56191,-8.59199 l -0.96481,-6.8587 -9.00521,-0.43448 c -8.28645,-0.3998 -9.00521,-0.19308 -9.00521,2.59004 0,1.80979 -1.32768,3.53509 -3.30573,4.29577 -4.37019,1.68056 -7.07582,5.12907 -6.52139,8.31197 0.31753,1.82296 -0.92106,2.98186 -4.24074,3.96784 -2.57911,0.76603 -4.68929,2.2126 -4.68929,3.21459 0,3.99318 -14.92592,5.27188 -16.39321,1.40441 z m 242.92179,22.2092 c -1.39895,-1.14915 -2.20196,-4.50614 -2.27079,-9.49327 -0.0986,-7.13367 -0.60587,-8.2341 -6.7288,-14.59383 -3.64225,-3.78312 -7.61922,-9.34111 -8.83771,-12.35109 -1.50209,-3.71051 -3.12959,-5.47269 -5.05445,-5.47269 -1.56144,0 -4.02939,-1.61826 -5.48433,-3.59615 l -2.64535,-3.59617 -7.93571,5.09796 c -6.13113,3.93867 -8.92003,7.00233 -12.26429,13.47246 -3.62673,7.01665 -4.87424,8.29219 -7.69399,7.86693 -1.85097,-0.27917 -4.57712,0.60156 -6.0581,1.95718 -2.5562,2.33983 -2.82749,2.24054 -5.35229,-1.9587 -1.46278,-2.43291 -3.49256,-9.43744 -4.51062,-15.56563 -2.05555,-12.37338 -1.09119,-15.35295 4.96915,-15.35295 3.33127,0 3.92229,-1.42726 5.3955,-13.02949 0.14556,-1.14628 2.12051,-2.58613 4.38881,-3.1997 3.2181,-0.87047 5.34999,-0.29507 9.70355,2.61898 6.38627,4.27465 9.97942,3.67425 9.97942,-1.66752 0,-3.24909 0.60854,-3.69426 5.05,-3.69426 5.03853,0 5.05,-0.0152 5.05,-6.70385 0,-5.58035 0.5072,-6.838 3.02635,-7.50433 2.74263,-0.72543 2.93909,-1.50678 2.09567,-8.33464 -0.77652,-6.2863 -0.44136,-8.16335 2.02366,-11.333 1.97107,-2.53453 2.95432,-5.95839 2.95432,-10.28762 0,-4.86495 0.88546,-7.45515 3.53825,-10.35035 1.94604,-2.12385 4.25232,-3.86156 5.12506,-3.86156 0.87274,0 2.28472,-2.02498 3.13774,-4.49995 l 1.55092,-4.49993 8.83473,1.02698 c 5.19602,0.60399 10.55805,2.26193 13.01892,4.02543 2.64721,1.89703 6.76633,3.09033 11.21375,3.24862 9.30982,0.33131 15.36626,6.23395 19.11275,18.62734 0.73876,2.44383 1.06762,2.45843 5.31654,0.23605 3.75049,-1.96167 5.62176,-2.09059 10.88547,-0.75 4.64565,1.18319 7.15893,1.18445 9.33837,0.004 3.76104,-2.0359 9.68949,-0.59609 13.89536,3.3747 3.71955,3.51166 4.09674,7.86362 1.03626,11.95628 -1.16512,1.55807 -2.12202,3.8566 -2.12645,5.10785 -0.0182,5.1431 -3.21861,13.43828 -5.49251,14.23605 -3.21171,1.12713 -16.1423,13.75726 -16.1423,15.76755 0,2.72178 -13.47843,15.09276 -18.952,17.3948 -2.93063,1.23255 -8.82431,6.32961 -13.3571,11.55167 -6.94785,8.00434 -8.96895,9.46201 -14.08093,10.15553 -6.63491,0.90012 -8.3838,2.72379 -8.41645,8.77626 -0.0277,5.15014 -2.94484,17.07989 -4.16123,17.01791 -0.50097,-0.0255 -1.88479,-0.84645 -3.07515,-1.82423 z M 445.79442,514.9652 c -0.0964,-1.88986 -1.0977,-3.28361 -2.35914,-3.28361 -1.62669,0 -1.9546,-0.95583 -1.27185,-3.70726 2.15368,-8.67922 -9.31303,-13.07846 -20.17576,-7.74048 l -6.57494,3.23094 -7.25713,-3.43799 c -4.64844,-2.20213 -7.25712,-4.35459 -7.25712,-5.98792 0,-4.5078 -1.68005,-7.16682 -4.52822,-7.16682 -1.52715,0 -3.15037,-0.98508 -3.60715,-2.18907 -0.45679,-1.20399 -1.8973,-2.2181 -3.20115,-2.25358 -1.30384,-0.0355 0.0756,-1.37052 3.06544,-2.96678 4.39487,-2.3464 5.17971,-3.38227 4.09761,-5.4082 -2.34178,-4.38431 -12.11988,-12.22053 -14.47706,-11.60199 -1.80029,0.47242 -2.2783,-0.69851 -2.30663,-5.65028 -0.0283,-4.94395 0.54028,-6.39855 2.72713,-6.97696 2.31049,-0.61113 2.6205,-1.618 1.89346,-6.1496 -0.47816,-2.98035 -2.45303,-7.12228 -4.38858,-9.20431 l -3.51917,-3.7855 5.12044,-12.60302 c 4.86749,-11.98044 5.41287,-12.69922 11.04001,-14.5504 3.25578,-1.07106 6.73381,-1.87527 7.72897,-1.78714 0.99516,0.0881 3.44609,-1.80715 5.44649,-4.21172 l 3.63709,-4.37195 -5.03318,-3.85833 c -3.4537,-2.64751 -5.0497,-5.0602 -5.08578,-7.68815 -0.0289,-2.1064 -0.99771,-6.53928 -2.15286,-9.85084 -1.83848,-5.27048 -1.83848,-6.02103 0,-6.02103 1.3662,0 2.10028,-1.51228 2.10028,-4.32681 0,-7.48821 3.73854,-7.94866 17.84025,-2.19726 6.82989,2.78559 13.35419,5.06469 14.49844,5.06469 2.09087,0 8.06131,-6.6145 8.06131,-8.93093 0,-0.68221 -3.21066,-3.71307 -7.1348,-6.73526 -4.1574,-3.20183 -6.85651,-6.33332 -6.46795,-7.50408 0.36674,-1.10506 -0.10706,-2.95235 -1.0529,-4.10507 -1.44698,-1.76348 -1.0984,-1.93815 2.19796,-1.10134 2.15472,0.54701 6.72303,0.2001 10.15177,-0.77089 5.55861,-1.57414 6.88111,-1.43155 12.20571,1.31597 3.28441,1.69477 5.97164,3.42903 5.97164,3.8539 0,0.42488 -0.97938,2.68812 -2.17641,5.02943 -3.05691,5.97911 -1.50527,27.88732 2.47488,34.94404 2.4876,4.41043 2.62704,5.7292 1.10048,10.40768 -1.65386,5.06866 -1.48598,5.71738 3.11579,12.04045 2.6751,3.67574 5.71376,6.70878 6.75256,6.74008 1.0388,0.0312 1.55836,0.59757 1.15458,1.25838 -0.69194,1.13241 2.33584,20.56427 4.29325,27.5534 0.83472,2.98047 5.55813,7.13894 10.69916,9.41949 1.56245,0.69311 0.86031,1.44298 -2.525,2.69669 -4.1792,1.54771 -4.68929,2.34671 -4.68929,7.34526 0,3.08474 -0.65037,6.0152 -1.44528,6.5121 -0.86733,0.54218 -1.08751,4.22403 -0.55062,9.20727 0.74001,6.86836 2.48639,10.85601 10.10242,23.06762 5.06427,8.12008 9.18712,15.34403 9.16188,16.05322 -0.0253,0.70919 -0.98827,0.0298 -2.14006,-1.50992 -1.83844,-2.45749 -2.58167,-2.57468 -6.08626,-0.95958 -2.19564,1.01187 -6.39275,2.08133 -9.3269,2.37658 -4.77001,0.47999 -5.81679,-0.0787 -9.88724,-5.27691 -3.36389,-4.2959 -4.32407,-6.73399 -3.67774,-9.33864 0.48108,-1.93871 0.29658,-3.88628 -0.40999,-4.32797 -1.61986,-1.0126 -4.02525,1.91399 -4.71123,5.73203 -0.28842,1.60532 -2.0128,3.57549 -3.83195,4.37815 -2.14719,0.9474 -3.07713,2.35655 -2.65076,4.01675 0.36123,1.40654 -0.18438,3.04834 -1.21248,3.64846 -1.02811,0.6001 -2.19096,2.40454 -2.58416,4.00986 -0.64833,2.64704 -0.73047,2.61308 -0.88226,-0.36485 z"
     id="centro"
     style="fill:#f6a04b;fill-opacity:1" />
  <path
     d="m 318.6993,241.89556 c -4.04649,-2.62061 -5.34,-2.82855 -8.50927,-1.368 -3.28981,1.51611 -4.19653,1.27746 -7.57138,-1.99288 -4.78162,-4.63356 -6.49773,-4.64322 -11.87491,-0.0668 -5.41054,4.60481 -11.97463,5.03444 -10.85672,0.71059 1.03842,-4.01644 -2.78978,-5.81843 -12.36083,-5.81843 -6.96108,0 -7.97922,-0.40013 -9.47666,-3.72429 -3.69741,-8.20788 -17.31831,-9.3523 -24.38328,-2.04868 -3.7811,3.90887 -27.46457,15.9887 -31.34702,15.9887 -1.00589,0 -3.53716,-2.61094 -5.62505,-5.80209 -2.08789,-3.19114 -5.36575,-6.8423 -7.28413,-8.11367 -3.27045,-2.16742 -3.95526,-2.07207 -10.98125,1.52905 l -7.49329,3.84062 -3.08932,-2.93126 c -2.03945,-1.93512 -5.54101,-3.08673 -10.30361,-3.38872 -6.82701,-0.4329 -7.24013,-0.69248 -7.69571,-4.83561 -0.7529,-6.8469 -4.03332,-9.486 -11.79118,-9.486 -3.72644,0 -8.91938,0.75598 -11.53985,1.67994 -6.70406,2.36381 -8.39137,0.0102 -10.76985,-15.02547 -0.46278,-2.92543 -2.7561,-7.75586 -5.09627,-10.7343 -8.1706,-10.39913 -6.78934,-21.47983 3.56682,-28.61359 4.12447,-2.84111 5.07245,-4.42006 5.08047,-8.46203 0.009,-4.72145 0.1414,-4.84878 2.64847,-2.55393 3.71492,3.40047 4.43204,3.16555 11.37474,-3.72623 l 6.18686,-6.1415 7.97832,3.95776 c 7.5038,3.72236 8.18709,3.8194 11.48823,1.63163 3.16864,-2.09995 4.42708,-2.11451 12.943,-0.14977 6.82284,1.57413 9.42433,1.71153 9.40141,0.49656 -0.0653,-3.46363 -5.4958,-13.48226 -9.15655,-16.89287 -3.72329,-3.46888 -4.79792,-7.96041 -2.69324,-11.25664 0.58302,-0.9131 5.2804,-3.41426 10.43862,-5.55814 5.15821,-2.14387 10.83806,-5.53628 12.62189,-7.53868 4.5291,-5.08407 15.34816,-8.1197 22.72811,-6.37709 3.17428,0.74953 6.25839,1.37846 6.85357,1.39761 2.17139,0.0699 1.00415,-3.96236 -1.92251,-6.64129 -2.50843,-2.2961 -2.86136,-3.83982 -2.137,-9.34733 0.47721,-3.62836 1.05576,-8.56718 1.28566,-10.97517 0.2299,-2.40798 0.96415,-5.60062 1.63166,-7.09474 0.80271,-1.796783 0.40767,-4.096633 -1.16672,-6.792403 -1.50498,-2.57691 -2.38038,-7.32002 -2.38038,-12.89751 0,-8.408581 0.24251,-9.008791 5.17832,-12.816641 4.31242,-3.32692 6.39802,-3.92946 12.47249,-3.60336 6.18091,0.33182 8.00409,1.15294 11.94562,5.38005 3.31925,3.559731 5.91192,4.988471 9.05237,4.988471 8.63356,0 11.12634,3.40497 7.5043,10.25035 -2.53417,4.78936 2.59979,5.78466 32.75903,6.35085 24.69371,0.46358 31.24411,1.10786 48.16413,4.73728 14.93372,3.20335 21.95584,4.027483 29.57554,3.47104 8.3518,-0.6099 11.05854,-0.19813 16.48804,2.508293 3.57273,1.78088 8.2431,3.25851 10.37859,3.28361 2.13548,0.0251 4.28398,0.70236 4.77444,1.50502 0.49046,0.80266 3.47785,1.45938 6.63867,1.45938 4.20883,0 7.46005,1.26942 12.14775,4.743 6.62961,4.91254 7.7657,8.68701 2.90001,9.63479 -1.54495,0.30094 -4.35444,1.57137 -6.24331,2.82319 -2.99222,1.98302 -3.31909,3.04197 -2.53929,8.2259 2.32085,15.42806 2.4341,19.03056 0.78545,24.98642 -0.98077,3.54305 -4.10568,8.895 -7.0082,12.00277 -7.02673,7.52357 -9.72844,11.06253 -12.33011,16.15127 -1.20228,2.35155 -3.76694,4.6769 -5.69927,5.16744 -4.14667,1.05266 -6.40235,6.5818 -7.67175,18.80504 -1.03764,9.99157 1.23353,13.60776 9.47885,15.09234 4.88615,0.87976 11.70549,5.55837 11.70549,8.0309 0,0.60865 -1.17712,1.48453 -2.61582,1.94638 -2.90506,0.93259 -21.74466,22.5804 -28.82155,33.11766 -2.65742,3.95683 -6.06228,7.14818 -8.20736,7.69274 -3.62591,0.92046 -11.17969,-1.95778 -13.01321,-4.95848 -1.94496,-3.18303 -12.84518,-1.55602 -19.48492,2.90839 -7.68056,5.16425 -10.64209,5.37955 -17.03615,1.2386 z m 184.25958,26.59937 c -1.716,-2.34766 -4.8196,-4.69735 -6.8967,-5.22155 -2.07722,-0.52418 -4.79907,-1.88449 -6.04858,-3.02291 -1.24951,-1.1384 -8.39166,-3.94039 -15.87143,-6.22665 -20.40695,-6.23755 -28.63336,-10.20128 -29.6466,-14.28461 -0.67171,-2.70695 -1.84563,-3.47097 -5.39154,-3.50895 -4.39086,-0.047 -11.02572,-4.16489 -11.02572,-6.843 0,-0.72372 -1.94786,-2.77246 -4.32858,-4.55276 -2.38071,-1.7803 -4.32857,-4.53069 -4.32857,-6.11199 0,-1.75337 -0.98512,-2.88723 -2.525,-2.90623 -1.38875,-0.0171 -4.33867,-2.62438 -6.55539,-5.79386 l -4.03039,-5.76269 3.78219,-0.96015 3.78219,-0.96014 -5.49649,-5.69339 c -3.02307,-3.13136 -7.98164,-6.44649 -11.01906,-7.36694 -8.72721,-2.64468 -9.51804,-5.9439 -5.25931,-21.94074 1.03142,-3.87432 2.61382,-6.04644 5.10182,-7.00321 2.04065,-0.78475 4.26307,-3.29156 5.11848,-5.77347 0.83151,-2.41259 2.01958,-4.38652 2.64019,-4.38652 2.33911,0 13.12715,-16.23903 16.06607,-24.18395 3.02943,-8.18963 3.0726,-10.9327 0.39574,-25.14506 -0.7001,-3.71707 -0.29063,-5.28732 1.79221,-6.87278 1.48478,-1.13023 3.7835,-1.72584 5.10824,-1.32358 1.55209,0.47129 2.74114,-0.32828 3.34367,-2.24838 1.67348,-5.33307 8.41778,-3.88153 14.09722,3.03407 4.52219,5.50647 5.22011,5.86158 8.27272,4.20916 4.58551,-2.4822 23.37651,-2.77146 24.17523,-0.37214 1.16566,3.50148 13.35253,1.82685 13.35253,-1.83481 0,-1.84993 13.34606,-6.04377 16.95356,-5.32744 0.992,0.19697 1.8036,-0.65575 1.8036,-1.89492 0,-2.71413 0.9547,-2.76422 9.3579,-0.49099 4.4545,1.20507 6.5135,2.53894 6.5135,4.21969 0,3.1148 9.7049,7.1716 16.9828,7.09906 2.9598,-0.0295 9.9265,-0.9446 15.4815,-2.03354 10.2265,-2.0047 12.1848,-1.50111 12.2422,3.14807 0.012,0.98483 1.6777,2.88783 3.7013,4.22891 3.2774,2.17204 4.56,2.22459 11.7448,0.48123 l 8.0657,-1.95708 3.3216,4.21341 c 3.2168,4.0805 3.7453,4.21771 16.7516,4.34965 14.2176,0.14423 18.2387,1.4557 28.5799,9.32119 3.5238,2.68015 7.4484,4.06155 12.9857,4.57071 6.896,0.63409 7.9967,1.16432 8.4012,4.04702 0.256,1.82454 -1.063,6.09324 -2.931,9.486 -2.7347,4.96696 -3.1239,6.94635 -1.9978,10.16079 1.1656,3.32717 0.8404,4.59311 -1.9525,7.60003 -2.7531,2.96416 -3.1927,4.60972 -2.4634,9.22275 1.6707,10.56772 -6.5194,15.48602 -16.178,9.71519 -3.6647,-2.18959 -4.696,-2.01532 -20.4226,3.45105 -14.4251,5.01399 -16.622,6.20642 -17.0197,9.23812 -1.4102,10.74872 -3.1668,13.94555 -10.1937,18.55095 -3.8869,2.54746 -8.0627,4.63174 -9.2797,4.63174 -1.2171,0 -4.0481,1.50319 -6.2913,3.34042 -5.1113,4.18625 -11.1602,6.87526 -15.4657,6.87526 -1.8236,0 -4.4624,1.28166 -5.864,2.84814 -1.7609,1.96806 -4.8394,2.98268 -9.9629,3.28361 -8.2435,0.48416 -8.2128,0.4139 -5.1187,11.70569 1.7869,6.5209 1.7103,7.08405 -1.4226,10.45705 -1.8211,1.96076 -4.8728,3.96144 -6.7815,4.44597 -2.4986,0.63431 -3.4703,1.89478 -3.4703,4.50163 0,2.61698 -0.7801,3.62066 -2.814,3.62066 -1.5478,0 -3.3333,0.84453 -3.9679,1.87672 -2.0131,3.27438 -9.3781,8.33896 -12.1267,8.33896 -1.4563,0 -4.0519,-1.92081 -5.768,-4.26847 z m -154.89494,56.91136 c -0.45515,-0.74488 0.48046,-1.77421 2.07913,-2.28742 1.59867,-0.51321 2.90666,-2.14859 2.90666,-3.63417 0,-1.48558 0.36555,-3.66459 0.81234,-4.84224 0.57866,-1.52524 -0.94582,-2.71403 -5.29967,-4.13265 -4.99168,-1.62645 -6.41908,-2.92777 -7.78724,-7.09935 -1.21844,-3.71502 -2.62577,-5.22583 -5.16106,-5.54056 -8.68538,-1.07818 -10.93058,-3.07234 -12.75796,-11.33147 -1.05908,-4.78668 -2.52513,-7.93749 -3.69327,-7.93749 -1.06537,0 -4.03119,-3.4424 -6.59069,-7.64977 -2.55952,-4.20737 -5.48758,-8.31189 -6.50683,-9.12115 -2.31661,-1.83933 -0.2557,-16.66809 2.56843,-18.4806 3.26754,-2.09707 7.82085,-1.31849 10.62633,1.81704 3.64474,4.07353 11.56024,2.83326 19.62378,-3.07484 7.26666,-5.32425 10.72763,-5.44662 17.74853,-0.62753 3.8826,2.66498 6.91747,3.59995 10.65844,3.28361 4.81555,-0.40721 6.43158,-1.96821 20.38382,-19.68958 8.33449,-10.58602 15.63138,-19.2876 16.21529,-19.33683 0.58393,-0.0492 2.78039,2.53735 4.88103,5.748 2.18971,3.34677 4.96881,5.83753 6.51333,5.83753 1.64108,0 2.69398,1.0358 2.69398,2.65024 0,1.45764 2.11017,4.64575 4.68928,7.0847 2.57911,2.43895 6.10105,6.17176 7.82654,8.29514 2.06728,2.54399 4.55234,3.86068 7.28642,3.86068 2.28206,0 4.892,0.75132 5.79989,1.66961 1.23902,1.25321 1.44894,0.88926 0.84172,-1.45939 -0.60599,-2.34383 -1.94345,-3.14118 -5.32999,-3.17754 -4.38128,-0.0471 -11.01386,-4.16793 -11.01386,-6.843 0,-0.72372 -1.94786,-2.77246 -4.32858,-4.55276 -2.38071,-1.7803 -4.32857,-4.53069 -4.32857,-6.11199 0,-1.75337 -0.98512,-2.88723 -2.525,-2.90623 -1.38875,-0.0171 -4.33867,-2.62438 -6.55539,-5.79386 l -4.03039,-5.76269 3.78219,-0.96015 3.78219,-0.96014 -5.49649,-5.69339 c -3.02307,-3.13136 -7.98164,-6.44649 -11.01906,-7.36694 -8.72721,-2.64468 -9.51804,-5.9439 -5.25931,-21.94074 1.03142,-3.87432 2.61382,-6.04644 5.10182,-7.00321 2.04065,-0.78475 4.26307,-3.29156 5.11848,-5.77347 0.83151,-2.41259 2.01958,-4.38652 2.64019,-4.38652 2.33911,0 13.12715,-16.23903 16.06607,-24.18395 3.02943,-8.18963 3.0726,-10.9327 0.39574,-25.14506 -0.7001,-3.71707 -0.29063,-5.28732 1.79221,-6.87278 1.48478,-1.13023 3.7835,-1.72584 5.10824,-1.32358 1.55209,0.47129 2.74114,-0.32828 3.34367,-2.24838 1.67348,-5.33307 8.41778,-3.88153 14.09722,3.03407 4.52219,5.50647 5.22011,5.86158 8.27272,4.20916 4.58551,-2.4822 23.37651,-2.77146 24.17523,-0.37214 1.16566,3.50148 13.35253,1.82685 13.35253,-1.83481 0,-1.84993 13.34606,-6.04377 16.95356,-5.32744 0.992,0.19697 1.8036,-0.65575 1.8036,-1.89492 0,-2.71413 0.9547,-2.76422 9.3579,-0.49099 4.4545,1.20507 6.5135,2.53894 6.5135,4.21969 0,3.1148 9.7049,7.1716 16.9828,7.09906 2.9598,-0.0295 9.9265,-0.9446 15.4815,-2.03354 10.2265,-2.0047 12.1848,-1.50111 12.2422,3.14807 0.012,0.98483 1.6777,2.88783 3.7013,4.22891 3.2774,2.17204 4.56,2.22459 11.7448,0.48123 l 8.0657,-1.95708 3.3216,4.21341 c 3.2168,4.0805 3.7453,4.21771 16.7516,4.34965 14.2176,0.14423 18.2387,1.4557 28.5799,9.32119 3.5238,2.68015 7.4484,4.06155 12.9857,4.57071 6.896,0.63409 7.9967,1.16432 8.4012,4.04702 0.256,1.82454 -1.063,6.09324 -2.931,9.486 -2.7347,4.96696 -3.1239,6.94635 -1.9978,10.16079 1.1656,3.32717 0.8404,4.59311 -1.9525,7.60003 -2.7531,2.96416 -3.1927,4.60972 -2.4634,9.22275 1.6707,10.56772 -6.5194,15.48602 -16.178,9.71519 -3.6647,-2.18959 -4.696,-2.01532 -20.4226,3.45105 -14.4251,5.01399 -16.622,6.20642 -17.0197,9.23812 -1.4102,10.74872 -3.1668,13.94555 -10.1937,18.55095 -3.8869,2.54746 -8.0627,4.63174 -9.2797,4.63174 -1.2171,0 -4.0481,1.50319 -6.2913,3.34042 -5.1113,4.18625 -11.1602,6.87526 -15.4657,6.87526 -1.8236,0 -4.4624,1.28166 -5.864,2.84814 -1.7609,1.96806 -4.8394,2.98268 -9.9629,3.28361 -8.2435,0.48416 -8.2128,0.4139 -5.1187,11.70569 1.7869,6.5209 1.7103,7.08405 -1.4226,10.45705 -1.8211,1.96076 -4.8728,3.96144 -6.7815,4.44597 -2.4986,0.63431 -3.4703,1.89478 -3.4703,4.50163 0,2.45988 -0.8095,3.63366 -2.525,3.6612 -1.3888,0.0223 -4.4385,2.01243 -6.7772,4.42253 -6.4418,6.63842 -10.6631,7.13725 -15.1374,1.78877 -2.0329,-2.43004 -5.3194,-4.90848 -7.3033,-5.50766 -1.98391,-0.59918 -4.62947,-1.99433 -5.87898,-3.10034 -1.24951,-1.106 -8.39166,-3.87454 -15.87143,-6.15228 -7.47977,-2.27775 -16.78402,-5.57181 -20.67613,-7.32015 -7.84468,-3.52385 -10.86504,-3.2191 -3.94875,0.39842 l 4.39286,2.29767 -3.57413,3.90073 c -1.96577,2.14539 -3.32551,4.60767 -3.02166,5.47171 1.14286,3.24973 -4.88084,9.59759 -9.10749,9.59759 -3.68351,0 -4.20637,0.61594 -5.10873,6.01812 -1.01668,6.08665 0.32931,8.49986 4.77073,8.55338 1.02016,0.0117 3.15412,3.08816 4.74212,6.83525 3.3437,7.88984 2.46306,9.18214 -6.28153,9.21797 -3.9124,0.016 -5.68557,0.7449 -6.2674,2.57626 -0.44626,1.40466 -1.46816,4.33446 -2.2709,6.51068 l -1.45949,3.95677 -8.63932,-4.41108 -8.63933,-4.41106 0.94616,4.35712 c 0.52038,2.39641 0.14533,7.06056 -0.83341,10.36477 l -1.77955,6.00764 -5.88611,-5.71167 c -5.18206,-5.02848 -17.64393,-13.37955 -19.96562,-13.37955 -0.46216,0 -3.86607,4.16808 -7.56422,9.26243 -6.04491,8.32704 -7.45188,9.43237 -13.93232,10.94538 -8.72428,2.03686 -10.89385,2.09642 -11.97401,0.32863 z"
     id="alto"
     style="fill:#1c7bae" />
</svg>
